<svg width="274" height="172" viewBox="0 0 274 172" fill="none" xmlns="http://www.w3.org/2000/svg">
<path fill-rule="evenodd" clip-rule="evenodd" d="M40.4673 77.8164V85.6328L42.4828 83.6748C45.0508 81.1797 47.2991 80.3858 51.2832 80.567C56.179 80.7896 59.7137 83.3986 61.3612 88.0052C61.9178 89.5616 62.0209 91.1929 62.1222 100.074L62.2393 110.344L59.8536 110.239L57.4679 110.135L57.2901 100.321C57.103 89.9706 57.0329 89.5072 55.3202 87.2617C53.9226 85.4292 51.9194 84.5676 49.0552 84.5676C46.1413 84.5676 44.2779 85.3927 42.5943 87.4286C40.692 89.7287 40.4673 91.1901 40.4673 101.261V110.311H38.0136H35.5599V90.1553V70H38.0136H40.4673V77.8164ZM18.4962 72.6272C21.0165 73.2837 22.9017 74.2368 24.5702 75.6982C25.8822 76.8479 27.8483 79.629 27.8483 80.336C27.8483 80.5474 26.9439 81.164 25.8387 81.7059C23.9879 82.6137 23.8007 82.6442 23.4727 82.0908C22.2349 80.0044 21.0789 78.8126 19.4086 77.9016C17.7822 77.0147 17.0373 76.8441 14.2517 76.72C8.83777 76.4792 6.12716 78.0713 5.86251 81.6473C5.59857 85.221 7.3929 86.5719 15.515 88.9131C21.638 90.678 23.8295 91.6213 25.6677 93.2817C27.6913 95.1101 28.5493 97.1438 28.5493 100.112C28.5493 103.065 27.775 105.039 25.8752 106.927C23.3643 109.424 19.694 110.647 14.6895 110.656C9.82626 110.665 5.60556 109.123 2.96188 106.372C1.52927 104.881 -0.281191 101.622 0.0367377 101.107C0.236188 100.784 3.50556 99.0938 3.9304 99.0938C4.09094 99.0938 4.40782 99.6063 4.63496 100.233C5.34127 102.181 7.07183 103.91 9.52201 105.117C11.6364 106.157 12.1475 106.264 15.0393 106.264C17.792 106.264 18.4906 106.134 20.164 105.316C24.3819 103.252 24.8541 98.6279 21.1304 95.8486C19.7644 94.8289 17.5494 93.9792 12.3238 92.4706C3.98717 90.0635 0.770045 87.1545 0.770045 82.0245C0.770045 79.5249 1.2401 78.1091 2.69268 76.2341C3.82489 74.7724 7.16156 72.9683 9.62086 72.4881C12.1468 71.9949 16.3191 72.06 18.4962 72.6272ZM85.3001 80.6774C87.9865 81.3925 90.2359 82.8948 91.5535 84.8546C93.5866 87.8783 93.7475 89.0067 93.7475 100.225V110.343L91.3814 110.239L89.0153 110.135L88.9081 108.846L88.8008 107.557L87.3307 108.546C84.0725 110.738 79.1564 111.27 74.914 109.889C71.8283 108.884 68.8909 106.123 68.1775 103.555C67.08 99.6045 67.8375 96.5714 70.6183 93.7812C72.2517 92.1418 73.0054 91.6714 74.9701 91.0646C79.3909 89.6993 84.3642 90.2471 87.3805 92.4323L88.8401 93.4899V92.3244C88.8401 90.2104 87.8642 87.7188 86.5031 86.3581C83.6453 83.4999 78.135 83.2685 72.7656 85.7811C71.5381 86.3553 70.476 86.8253 70.4051 86.8253C70.0837 86.8253 68.8569 83.9591 69.0469 83.652C69.4433 83.0102 72.7796 81.5198 75.2964 80.8597C78.3169 80.0679 82.7094 79.9879 85.3001 80.6774ZM161.331 80.9505C164.525 82.1107 166.758 84.3341 168.003 87.5947C168.482 88.8479 168.598 90.9037 168.689 99.7237L168.799 110.344L166.413 110.239L164.028 110.135L163.921 108.841L163.813 107.547L162.168 108.591C157.257 111.706 150.043 111.271 145.977 107.616C143.656 105.529 142.718 103.49 142.718 100.533C142.718 94.7259 146.992 90.795 153.723 90.4112C157.453 90.1985 159.82 90.7239 162.126 92.276L163.853 93.438V92.2469C163.853 90.339 162.833 87.8029 161.514 86.4313C158.711 83.5177 153.175 83.2555 147.779 85.7811C146.551 86.3553 145.489 86.8253 145.418 86.8253C145.097 86.8253 143.87 83.9591 144.06 83.652C144.45 83.02 147.775 81.5243 150.309 80.8411C153.322 80.0286 158.947 80.0843 161.331 80.9505ZM215.165 80.6616C217.276 81.2968 219.057 82.6621 220.27 84.5749L221.23 86.0885L222.333 84.5234C225.995 79.3289 234.657 78.7891 238.792 83.4978C241.326 86.3847 241.444 87.0521 241.592 99.3567L241.723 110.311H239.243H236.763L236.761 100.584C236.759 90.5153 236.607 89.1525 235.266 87.1345C232.787 83.4031 226.468 83.5055 223.868 87.3195C222.629 89.1367 222.409 91.1852 222.4 100.95L222.391 110.343L220.025 110.239L217.659 110.135L217.484 99.6196C217.287 87.824 217.291 87.844 214.559 85.6356C213.31 84.6254 213.014 84.5469 210.473 84.5469C207.932 84.5469 207.637 84.6254 206.387 85.6356C203.655 87.844 203.659 87.824 203.463 99.6196L203.287 110.135L200.921 110.239L198.555 110.343V95.4132V80.4839L200.921 80.5873L203.287 80.6911L203.393 82.7126L203.498 84.7341L204.384 83.6808C206.941 80.6417 211.167 79.4583 215.165 80.6616ZM264.77 80.6774C267.457 81.3925 269.706 82.8948 271.024 84.8546C273.057 87.8783 273.218 89.0067 273.218 100.225V110.343L270.852 110.239L268.485 110.135L268.378 108.834L268.27 107.532L266.889 108.531C264.812 110.036 261.538 110.802 258.17 110.571C251.718 110.129 247.291 106.12 247.282 100.712C247.277 97.4975 247.879 96.014 250.096 93.7812C251.726 92.139 252.472 91.6724 254.44 91.0646C258.892 89.6895 263.834 90.2468 266.903 92.4706L268.415 93.5656L268.226 91.4793C267.688 85.5533 262.875 82.8749 255.772 84.5497C254.564 84.8347 252.794 85.4632 251.84 85.9466C250.887 86.4299 250.014 86.8253 249.902 86.8253C249.576 86.8253 248.36 83.9065 248.554 83.5917C248.918 83.0035 252.353 81.4924 254.767 80.8597C257.787 80.0679 262.179 79.9879 264.77 80.6774ZM102.418 80.954C102.607 81.1951 104.385 86.0086 106.369 91.6511C108.353 97.2935 110.027 101.86 110.088 101.799C110.149 101.737 111.833 96.9633 113.83 91.1894L117.461 80.6911H118.614H119.767L123.379 91.1498C125.366 96.9019 127.053 101.67 127.129 101.745C127.204 101.821 128.499 98.3759 130.006 94.0907C131.514 89.8055 133.215 84.9984 133.786 83.4077L134.825 80.5158H137.246C138.578 80.5158 139.667 80.6441 139.667 80.8008C139.667 81.1131 130.274 106.872 129.386 108.996C128.896 110.169 128.7 110.311 127.579 110.311C126.058 110.311 126.324 110.87 121.941 98.4824C120.219 93.6157 118.725 89.6327 118.622 89.6316C118.518 89.6306 116.783 94.2435 114.766 99.8825L111.099 110.135L109.679 110.24L108.259 110.344L102.931 95.7823C100.001 87.7731 97.6033 81.0619 97.6033 80.8681C97.6033 80.3448 102.002 80.4233 102.418 80.954ZM180.14 80.954C180.217 81.1951 180.385 82.939 180.513 84.8294L180.747 88.267L181.446 86.8541C183.032 83.6485 186.929 81.0027 190.627 80.621L192.596 80.4177V82.6965V84.9749L190.844 85.1824C187.558 85.5718 184.592 87.3897 182.92 90.039C181.36 92.5098 181.029 94.7518 181.029 102.848V110.311H178.575H176.121V95.6471C176.121 87.5818 176.227 80.8779 176.355 80.7496C176.784 80.3202 179.992 80.4934 180.14 80.954ZM79.3758 93.7279C72.8795 94.817 70.3701 100.314 74.3552 104.725C77.531 108.24 85.4859 107.808 88.017 103.984C90.314 100.512 88.8033 95.9773 84.809 94.354C83.5836 93.8555 80.6384 93.5166 79.3758 93.7279ZM153.863 93.8208C149.597 94.6189 146.996 97.6321 147.477 101.219C148.076 105.686 153.537 108.268 159.015 106.676C164.291 105.142 165.839 98.5939 161.663 95.4746C159.74 94.0392 156.438 93.3388 153.863 93.8208ZM258.238 93.8552C254.853 94.5229 252.771 96.3183 252.144 99.1096C251.387 102.474 253.857 105.994 257.553 106.821C264.596 108.397 270.281 103.789 268.156 98.2245C266.871 94.8601 262.626 92.9897 258.238 93.8552ZM155.117 131.666C157.234 133.783 155.931 137.11 152.987 137.11C151.121 137.11 149.832 135.808 149.832 133.925C149.832 132.285 151.411 130.641 152.987 130.641C153.741 130.641 154.418 130.967 155.117 131.666ZM60.8887 141.245C63.3434 145.342 65.6776 149.226 66.0758 149.876L66.7996 151.059L71.9762 142.515L77.1524 133.971L80.0169 133.87C81.5922 133.814 82.8811 133.852 82.8811 133.956C82.8811 134.06 79.8052 139.1 76.0458 145.157L69.2105 156.17V163.736V171.302H66.7568H64.3032V163.721V156.139L57.5993 145.23C53.9125 139.231 50.8271 134.204 50.7433 134.059C50.6596 133.914 51.9039 133.796 53.5083 133.796H56.4257L60.8887 141.245ZM201.58 134.618C201.466 135.07 198.308 143.47 194.562 153.284L187.751 171.127L185.091 171.23C183.628 171.286 182.431 171.254 182.431 171.16C182.431 171.066 185.191 163.766 188.565 154.938C191.939 146.11 194.699 138.689 194.699 138.445C194.699 138.1 192.762 138.002 185.936 138.002H177.173V135.899V133.796H189.479H201.786L201.58 134.618ZM219.236 152.549V171.302H216.607H213.978L213.973 156.493L213.968 141.683L210.501 145.363L207.034 149.044L205.599 147.658C204.81 146.896 204.164 146.157 204.164 146.015C204.164 145.873 206.785 143.066 209.988 139.776L215.811 133.796H217.524H219.236V152.549ZM99.0054 141.656C103.4 142.593 106.743 145.3 108.777 149.566C109.893 151.905 110.044 152.564 110.167 155.627C110.323 159.514 109.945 161.36 108.373 164.375C105.638 169.623 99.535 172.572 93.2511 171.682C87.4678 170.863 83.0431 167 81.2971 161.246C80.6486 159.108 80.6364 154.092 81.275 151.989C82.9278 146.543 86.7685 142.787 91.8196 141.676C94.5765 141.069 96.2355 141.065 99.0054 141.656ZM137.046 142.601C139.173 143.663 141.184 145.957 142.188 148.467C142.938 150.338 142.987 151.013 143.1 160.874L143.219 171.302H140.742H138.264V161.901C138.264 154.1 138.166 152.211 137.689 150.809C135.696 144.96 127.565 143.585 123.566 148.42C121.664 150.721 121.439 152.182 121.439 162.253V171.302H118.985H116.532V156.58V141.858H118.985H121.439V144.38V146.902L122.228 145.833C123.33 144.34 124.995 143 126.578 142.334C129.611 141.057 134.189 141.174 137.046 142.601ZM155.44 156.58V171.302H152.987H150.533V156.58V141.858H152.987H155.44V156.58ZM93.615 145.756C88.5491 146.537 85.0151 151.549 85.4252 157.372C85.7572 162.082 88.6469 166.01 92.5946 167.116C94.56 167.667 98.1459 167.393 99.8817 166.559C103.642 164.752 105.897 160.482 105.59 155.747C105.15 148.954 100.116 144.753 93.615 145.756Z" fill="white"/>
<path fill-rule="evenodd" clip-rule="evenodd" d="M140.331 7.19879C141.972 13.2847 146.464 20.6152 150.369 23.5828C155.055 27.1431 161.021 27.3941 165.346 24.213C167.258 22.8071 168.96 20.3282 169.468 18.2092C170.568 13.6261 167.728 8.90656 163.138 7.68988C157.131 6.09779 152.022 12.966 155.627 17.7875C156.468 18.912 156.496 19.0088 155.806 18.4157C154.696 17.4615 153.704 15.1915 153.695 13.5847C153.679 10.8485 155.573 8.11999 158.405 6.80165C160.484 5.83315 161.976 5.76759 164.577 6.52964C167.198 7.29729 170.222 10.3409 171.013 13.0074C172.033 16.4422 171.472 19.9661 169.462 22.7398C168.881 23.5425 168.487 24.1994 168.587 24.1994C168.688 24.1994 170.148 23.6413 171.832 22.9592C176.417 21.1025 179.745 20.311 183.832 20.1049C189.62 19.8129 193.447 20.9552 196.686 23.9414C198.826 25.9131 199.888 27.8603 200.459 30.8566C201.189 34.6903 202.817 37.5832 206.087 40.8568C210.256 45.0305 214.693 46.9248 219.415 46.5459C223.411 46.2251 226.013 43.9705 226.013 40.8288C226.013 37.9523 223.703 36.0875 221.031 36.8068C219.385 37.2499 218.499 38.184 218.461 39.5146C218.403 41.5417 219.857 42.8043 221.695 42.3237C222.677 42.0668 222.561 42.3795 221.527 42.7724C219.626 43.4952 217.483 41.7338 217.483 39.4473C217.483 35.4899 222.952 33.6783 226.057 36.607C229.649 39.9948 227.607 46.2784 222.412 47.8211C214.456 50.1836 204.323 44.1714 201.322 35.3083L200.721 33.5308L200.312 35.0489C199.433 38.3106 197.232 40.5385 194.066 41.3679C191.224 42.1124 187.602 41.0468 185.835 38.9457C182.577 35.0738 184.827 29.0363 189.494 29.1303C190.567 29.152 190.518 29.194 188.928 29.621C186.197 30.3539 184.856 32.5977 185.346 35.6143C185.794 38.3786 188.213 40.1291 191.544 40.0997C194.815 40.0706 197.346 38.3456 198.367 35.4499C199.919 31.0519 197.494 25.7897 192.874 23.5295C187.418 20.8609 181.233 21.1635 171.038 24.5983C168.146 25.5728 165.544 26.502 165.255 26.6632C164.787 26.924 164.787 26.9752 165.255 27.1245C165.544 27.2167 166.291 27.4551 166.915 27.6542C172.544 29.4478 175.421 36.587 172.395 41.2536C171.018 43.3778 169.411 44.3025 166.808 44.4679C162.944 44.714 160.295 42.7991 159.841 39.4312C159.447 36.5092 161.476 33.9823 164.167 34.0422L165.43 34.0706L163.863 34.4804C159.989 35.4948 159.585 40.8032 163.251 42.5425C166.104 43.8966 169.736 42.715 171.151 39.9731C173.2 36.0017 170.548 30.6337 165.416 28.3633C163.891 27.6889 163.571 27.6664 161.094 28.0618C159.116 28.3773 157.9 28.3906 156.425 28.1127C154.457 27.7411 150.442 25.9548 150.011 25.2587C149.889 25.0617 149.66 24.9004 149.501 24.9004C149.342 24.9004 149.598 25.8553 150.069 27.0222C152.031 31.8801 151.831 35.9522 149.518 38.2661C147.051 40.7331 143.183 40.9567 140.797 38.7705C139.682 37.7483 139.526 37.3901 139.392 35.5379C139.258 33.6818 139.342 33.3352 140.164 32.3583C141.317 30.9877 142.703 30.6544 144.362 31.3474C145.056 31.6376 145.625 31.9541 145.625 32.0505C145.625 32.1469 145.081 31.9983 144.415 31.7203C142.195 30.7924 140.192 32.3102 140.192 34.9206C140.192 36.1853 140.393 36.6554 141.338 37.6004C142.349 38.612 142.706 38.7463 144.379 38.7463C146.416 38.7463 147.593 38.1279 148.907 36.3686C149.442 35.6522 149.594 34.9269 149.564 33.2356C149.51 30.2214 148.478 27.1438 145.744 21.8519C141.746 14.1122 141.168 12.8721 140.398 10.3739C139.545 7.60751 138.6 2.19292 138.652 0.363514C138.674 -0.423771 138.845 0.0785239 139.13 1.76561C139.374 3.21154 139.915 5.65647 140.331 7.19879ZM135.47 4.70058C134.85 9.02574 132.913 14.3853 130.19 19.3064C124.395 29.7822 123.471 35.3174 127.078 37.9583C129.974 40.08 134.408 38.2243 134.408 34.8905C134.408 33.4719 133.482 32.0235 132.315 31.6165C131.091 31.1896 130.863 30.7027 132.042 31.0329C133.629 31.4777 134.388 32.0375 134.918 33.154C135.648 34.6928 135.6 35.8709 134.737 37.5629C133.309 40.3615 129.038 41.1523 126.047 39.1722C122.623 36.9064 122.314 32.3257 125.125 25.4925C125.33 24.994 125.027 25.0852 123.712 25.9194C120.74 27.8042 118.936 28.2308 114.307 28.1432C109.244 28.0471 107.525 28.6304 105.179 31.239C101.25 35.6094 102.547 42.2018 107.494 43.0045C109.487 43.328 111.138 42.8583 112.49 41.5828C113.599 40.5364 113.727 40.2269 113.727 38.5822C113.727 36.9638 113.587 36.6081 112.535 35.5565C111.285 34.3061 110.115 34.0552 108.709 34.7345C107.969 35.0917 107.966 35.0857 108.624 34.5592C109.839 33.5855 111.82 33.8631 113.294 35.214C114.542 36.3574 114.603 36.5183 114.603 38.6316C114.603 41.2652 113.753 42.7426 111.608 43.837C109.005 45.1648 104.887 44.4707 102.965 42.3805C100.204 39.3769 100.372 33.9931 103.332 30.6302C104.694 29.0822 107.609 27.365 108.887 27.3576C109.213 27.3555 109.568 27.2097 109.677 27.0334C109.876 26.7127 101.097 23.6634 97.0201 22.6367C92.0451 21.3839 85.9841 21.5922 82.374 23.1394C80.1959 24.0732 77.6749 26.4894 76.6965 28.581C75.5605 31.0101 75.5552 34.3591 76.6846 36.5004C79.3981 41.6444 87.7245 41.2098 89.168 35.8488C90.0667 32.5111 87.4146 29.0878 84.316 29.5856C83.4439 29.7258 83.2178 29.6848 83.5816 29.4527C84.5186 28.8554 86.5825 29.0728 87.7883 29.8955C91.1909 32.218 91.0159 37.8346 87.4669 40.2266C82.7302 43.4185 76.1935 41.0766 74.4924 35.5782L73.8629 33.5438L73.2684 35.3342C72.0058 39.1357 68.782 43.1121 64.9598 45.5823C61.8026 47.623 59.7773 48.2098 55.8899 48.2102C52.8488 48.2105 52.3962 48.1197 50.6699 47.1638C48.2449 45.8206 47.058 44.0662 46.846 41.5109C46.5617 38.0824 48.2095 35.8267 51.4358 35.2287C53.1481 34.9112 55.6144 35.8201 56.4336 37.0704C58.194 39.7569 56.0743 43.6274 53.2333 42.9144C51.862 42.5702 51.9753 42.2274 53.4152 42.3648C54.5173 42.4699 54.8622 42.3318 55.4889 41.5351C56.4939 40.2574 56.4459 38.8721 55.3593 37.7855C54.2754 36.7016 52.8723 36.3897 51.1806 36.8569C47.3704 37.9089 47.8653 43.823 51.9269 45.773C56.1711 47.8109 63.4042 45.9352 67.878 41.6367C70.4736 39.1427 71.4407 37.4974 72.9207 33.059C73.6133 30.9818 74.667 28.364 75.2622 27.2416C79.4184 19.4077 90.3247 17.8008 103.179 23.1289C104.607 23.7209 105.828 24.1531 105.891 24.0897C105.955 24.0259 105.619 23.4482 105.145 22.8053C103.933 21.1621 103.092 18.4006 103.115 16.1372C103.193 8.56479 111.442 3.46426 117.284 7.37615C119.55 8.89358 120.507 10.5277 120.675 13.17C120.833 15.657 120.066 17.4973 118.348 18.7511C117.492 19.3761 117.509 19.3204 118.542 18.1314C119.165 17.4132 119.77 16.3945 119.885 15.868C120.001 15.3412 120.149 14.7316 120.214 14.5136C120.28 14.2952 120.161 13.4357 119.95 12.6036C119.224 9.74678 116.002 7.37512 112.851 7.37932C110.157 7.38318 106.208 10.4503 105.281 13.2584C104.748 14.8725 105.048 18.8121 105.817 20.2987C107.753 24.0427 111.749 26.4116 116.181 26.4435C118.43 26.4596 119.154 26.3004 121.189 25.3432C123.942 24.048 127.161 21.1536 129.237 18.1069C132.006 14.0407 134.672 7.1739 135.342 2.38359C135.483 1.36882 135.662 0.834257 135.739 1.1953C135.815 1.55634 135.695 3.13372 135.47 4.70058ZM191.717 29.804C191.84 30.0024 191.699 30.0613 191.387 29.9417C190.78 29.7086 190.669 29.4573 191.173 29.4573C191.354 29.4573 191.599 29.6133 191.717 29.804ZM130.552 31.4585C130.263 31.565 129.711 31.9075 129.325 32.2195C128.63 32.7824 128.63 32.7806 129.292 31.9986C129.66 31.565 130.212 31.2225 130.519 31.2376C130.994 31.2611 130.999 31.2944 130.552 31.4585ZM166.702 34.9781C167.146 35.5456 167.13 35.553 166.481 35.0773C166.096 34.7944 165.715 34.5186 165.634 34.4639C165.554 34.4092 165.653 34.3647 165.854 34.3647C166.055 34.3647 166.437 34.6409 166.702 34.9781Z" fill="#DFA065"/>
</svg>
